<svg width="16" height="16" viewBox="0 0 16 16" fill="none" xmlns="http://www.w3.org/2000/svg">
<g clip-path="url(#clip0_216_638)">
<path d="M0.506371 15.8771C0.41412 15.8771 0.323969 15.8405 0.25745 15.7731C0.169575 15.6842 0.135615 15.5551 0.168699 15.4344L1.18942 11.7081C0.554685 10.5587 0.219814 9.25929 0.218939 7.93977C0.218939 7.93714 0.218939 7.93452 0.218939 7.93189C0.220689 3.62583 3.72537 0.122559 8.03125 0.122559C10.1198 0.123434 12.0823 0.936891 13.5576 2.41291C15.0325 3.88928 15.8443 5.8516 15.8437 7.93802C15.8416 12.2444 12.3371 15.7479 8.03142 15.7479C6.77264 15.7473 5.52768 15.4419 4.41856 14.8628L0.595121 15.8657C0.565713 15.8734 0.535954 15.8771 0.506371 15.8771ZM4.46233 14.1395C4.52044 14.1395 4.57821 14.154 4.63002 14.1822C5.66737 14.7478 6.84266 15.0471 8.02844 15.0477C11.9513 15.0477 15.142 11.8581 15.1435 7.93784C15.1442 6.0382 14.405 4.25181 13.0622 2.90778C11.7192 1.5641 9.93246 0.823634 8.03107 0.822759C4.11363 0.822759 0.924565 4.00797 0.918964 7.92489C0.918964 7.92751 0.918964 7.92996 0.918964 7.93241C0.918614 9.18122 1.24683 10.4102 1.86826 11.4866C1.915 11.5677 1.92743 11.664 1.90274 11.7541L1.00421 15.0345L4.3734 14.1511C4.40263 14.1434 4.43257 14.1395 4.46233 14.1395Z" fill="#096043" stroke="#096043" stroke-width="0.3"/>
<path d="M10.0385 11.8661C9.69133 11.8661 9.15778 11.7771 8.05759 11.3434C6.86322 10.8725 5.68899 9.84755 4.75089 8.45766C4.73637 8.4363 4.72604 8.42072 4.71991 8.41197C4.46924 8.07675 3.88965 7.20167 3.88965 6.27496C3.88965 5.27787 4.38784 4.74659 4.6007 4.51973L4.63431 4.48349C4.92087 4.1705 5.25801 4.13672 5.38965 4.13672H5.41328C5.53477 4.13777 5.65573 4.13672 5.76216 4.14145C6.00653 4.15142 6.28433 4.22179 6.48581 4.66975C6.48722 4.67272 6.48844 4.6757 6.48967 4.67867C6.58804 4.89836 6.74664 5.28925 6.87443 5.60399C6.95057 5.79164 7.03687 6.00433 7.05508 6.04231C7.16553 6.26358 7.17079 6.47871 7.06978 6.68055L7.04475 6.73114C6.99311 6.83652 6.94427 6.93612 6.83662 7.06233C6.80651 7.09734 6.77587 7.1348 6.74524 7.17191C6.67662 7.25524 6.6059 7.34154 6.5378 7.40928C6.6873 7.65908 7.01762 8.16007 7.47905 8.57144C8.03256 9.0649 8.50642 9.27059 8.76111 9.38122C8.81993 9.40678 8.86737 9.42778 8.90255 9.44511C8.90606 9.44686 8.90921 9.44844 8.91218 9.44984C9.07638 9.26079 9.35471 8.92697 9.44836 8.7864C9.73317 8.35928 10.1298 8.50369 10.2791 8.55813C10.4971 8.63743 11.5792 9.17501 11.5897 9.18044L11.6869 9.22788C11.8546 9.30892 11.9995 9.37877 12.0911 9.53106C12.2388 9.77876 12.1534 10.3184 12.0118 10.7155C11.8066 11.2907 10.9261 11.7899 10.4552 11.8328C10.4253 11.8354 10.3957 11.8389 10.3653 11.8426C10.269 11.854 10.1662 11.8661 10.0385 11.8661ZM5.44567 4.83692C5.43482 4.83692 5.42396 4.83692 5.41328 4.83692H5.38948C5.35902 4.83692 5.25206 4.8455 5.15053 4.95648L5.11115 4.99867C4.92875 5.19297 4.58967 5.55497 4.58967 6.27513C4.58967 7.01174 5.11727 7.77444 5.27902 7.9908C5.28987 8.00515 5.30685 8.02983 5.33136 8.06624C6.19103 9.34008 7.25026 10.2726 8.31439 10.6922C9.65615 11.2212 10.0041 11.1809 10.2832 11.1475C10.3199 11.1433 10.3556 11.1391 10.3915 11.1357C10.6462 11.1126 11.2559 10.7506 11.352 10.4805C11.4429 10.2264 11.4669 10.0125 11.4679 9.90077C11.4415 9.88747 11.4101 9.87224 11.3825 9.85893L11.2768 9.80729C10.9762 9.65727 10.1706 9.26429 10.0393 9.2165C10.0283 9.21265 10.0185 9.20897 10.0097 9.20599C9.83382 9.45789 9.41738 9.93718 9.413 9.94191C9.26281 10.114 8.99813 10.2763 8.58869 10.0714C8.56243 10.0583 8.52637 10.0429 8.48226 10.0238C8.21233 9.90672 7.6506 9.6627 7.01307 9.09449C6.44065 8.58404 6.04837 7.96191 5.90622 7.71824C5.65958 7.29532 5.94876 7.00772 6.04381 6.91319C6.08705 6.87013 6.14674 6.79748 6.20433 6.72729C6.23812 6.68615 6.2719 6.64519 6.30446 6.60703C6.35435 6.54856 6.37361 6.50917 6.4158 6.42305L6.43838 6.37719C6.43628 6.37193 6.43295 6.36423 6.4277 6.35355C6.40389 6.30612 6.3561 6.18918 6.22534 5.86709C6.0979 5.5534 5.93948 5.16286 5.84671 4.95665C5.84566 4.9542 5.84461 4.95193 5.84356 4.94948C5.80277 4.86108 5.77564 4.83884 5.77529 4.83867C5.77914 4.84252 5.75095 4.84147 5.73222 4.84077C5.64417 4.83709 5.54562 4.83692 5.44567 4.83692Z" fill="#096043" stroke="#096043" stroke-width="0.3"/>
</g>
<defs>
<clipPath id="clip0_216_638">
<rect width="16" height="16" fill="white"/>
</clipPath>
</defs>
</svg>
