<svg width="174" height="98" viewBox="0 0 174 98" fill="none" xmlns="http://www.w3.org/2000/svg">
<g clip-path="url(#clip0_178_180)">
<path fill-rule="evenodd" clip-rule="evenodd" d="M0 74.3501V75.629L2.03755 75.5038C1.94855 76.1971 1.93914 76.8923 1.93914 77.59V90.0493C1.93914 90.6871 1.9564 91.3382 1.8921 91.9721C1.77252 93.1418 1.09856 93.5589 0 93.5826V94.5392H14.535L14.6992 88.9153H13.7367C13.7367 91.7437 12.6883 93.3393 9.69455 93.3855L4.30525 93.4718C4.41424 92.7629 4.39934 91.9363 4.39934 91.2178V84.618C5.91584 84.551 6.73721 84.5169 6.87796 84.5169C8.94571 84.5169 9.80746 84.6522 9.80746 87.0691H10.7276V81.0125H9.47381L9.68043 83.4929H4.39895V78.8589C4.39895 78.268 4.41306 77.7634 4.43659 77.3399C4.51657 75.8992 5.19719 75.4906 6.5353 75.4175L9.13154 75.3741C10.688 75.3741 11.9066 75.7675 12.4833 77.3784C12.6711 77.9023 12.7652 78.5755 12.7652 79.3976H13.6854L13.5493 74.3501H0H0ZM83.4444 41.8182C83.4444 42.6849 83.4624 43.6808 83.3315 44.5346L89.8252 44.4307C93.4326 44.3749 94.6958 42.4521 94.6958 39.0444H95.8555L95.6575 45.8208H78.1445V44.6683C79.4681 44.6402 80.2796 44.1376 80.4239 42.7282C80.5012 41.9643 80.4804 41.1796 80.4804 40.4112V25.3993C80.4804 24.5584 80.4921 23.721 80.5992 22.8856L78.1445 23.0362V21.4955H94.4696L94.6335 27.577H93.5247C93.5247 26.5867 93.4118 25.7755 93.1852 25.1444C92.4901 23.204 91.0222 22.7291 89.1465 22.7291L86.0187 22.7813C84.4065 22.8688 83.5863 23.3621 83.4899 25.0979C83.4612 25.6077 83.4448 26.2158 83.4448 26.9275V32.5113H89.8083L89.5594 29.5223H91.07V36.8197H89.9613C89.9613 33.9074 88.9231 33.7445 86.4315 33.7445C86.2614 33.7445 85.2718 33.785 83.4448 33.8665V41.8178L83.4444 41.8182ZM100.637 44.0076C100.564 44.0076 100.497 44.0019 100.425 44.0007C101.33 45.7979 101.439 47.8592 101.442 48.6865C100.632 48.6833 98.609 48.5701 96.8498 47.636C96.8514 47.7175 96.8572 47.7946 96.8572 47.8777C96.8572 48.0972 96.8408 48.3124 96.8235 48.5272C98.636 49.387 100.575 49.4978 101.423 49.4978C101.67 49.4978 101.824 49.489 101.855 49.4866L102.202 49.4641L102.225 49.1088C102.233 48.9667 102.372 46.3643 101.294 43.9714C101.077 43.9903 100.859 44.0072 100.637 44.0072L100.637 44.0076ZM73.4946 23.5175C73.533 23.5175 73.5699 23.5239 73.6079 23.5243C72.3141 21.3907 72.5211 19.4009 72.6407 18.745C73.257 18.6097 75.1597 18.352 77.2784 19.7204C77.2784 19.6956 77.2745 19.6719 77.2745 19.6474C77.2745 19.3531 77.2917 19.0742 77.3109 18.7976C74.6108 17.2477 72.3012 17.9915 72.1831 18.0317L71.9832 18.0999L71.9271 18.3074C71.8926 18.4339 71.2724 20.854 72.7136 23.5524C72.9692 23.5359 73.2237 23.5179 73.495 23.5179L73.4946 23.5175ZM72.6779 49.2947H72.6893H72.7007H72.712H72.7524C73.6193 49.2911 75.5231 49.171 77.3058 48.3264C77.2886 48.1109 77.2717 47.8949 77.2717 47.6745C77.2717 47.5919 77.2788 47.516 77.2808 47.4345C75.5223 48.3666 73.5017 48.4798 72.692 48.483C72.6948 47.6553 72.805 45.5912 73.7114 43.7928C73.6377 43.7948 73.5659 43.804 73.4919 43.804C73.2656 43.804 73.0535 43.7872 72.8379 43.7747C71.7636 46.1652 71.9013 48.7632 71.9103 48.9057L71.9318 49.261L72.28 49.2834C72.3094 49.2854 72.4509 49.2939 72.6779 49.2947ZM96.502 19.9509C97.8825 19.077 99.2006 18.8714 100.117 18.8714C100.581 18.8714 100.943 18.9228 101.158 18.9638C101.291 19.5968 101.542 21.5521 100.194 23.7278C100.226 23.7278 100.255 23.7246 100.287 23.7246C100.56 23.7246 100.83 23.7403 101.095 23.7688C102.626 20.9949 101.894 18.6181 101.854 18.4953L101.788 18.2906L101.585 18.2332C101.462 18.1975 99.1038 17.5644 96.4722 19.0328C96.4891 19.3014 96.5064 19.5691 96.5064 19.8545C96.5064 19.887 96.502 19.9183 96.5016 19.9509H96.502ZM100.436 67.3156H100.438H100.441H100.444C100.511 67.314 100.575 67.2932 100.634 67.2598C100.652 67.2498 100.665 67.2305 100.682 67.2177C100.712 67.194 100.744 67.1755 100.767 67.143C100.769 67.1406 100.769 67.1378 100.771 67.135C100.774 67.1302 100.78 67.1282 100.784 67.1229C100.792 67.1101 100.792 67.0932 100.799 67.0788L119.655 47.7721C119.667 47.7653 119.683 47.7681 119.695 47.7596C119.697 47.758 119.698 47.7552 119.7 47.7536C119.702 47.752 119.704 47.7528 119.706 47.7516C119.756 47.7151 119.792 47.6689 119.82 47.6179C119.827 47.6043 119.83 47.5902 119.836 47.5762C119.854 47.5324 119.865 47.4883 119.869 47.4413C119.869 47.4317 119.875 47.4241 119.875 47.4144V19.8934C119.875 19.8838 119.869 19.8762 119.869 19.867C119.865 19.8204 119.854 19.7762 119.836 19.7329C119.83 19.7184 119.828 19.704 119.821 19.6903C119.793 19.6394 119.756 19.5928 119.707 19.5571C119.705 19.5551 119.702 19.5551 119.699 19.553C119.698 19.5518 119.697 19.5498 119.695 19.5486C119.687 19.543 119.676 19.5434 119.667 19.5386C119.665 19.537 119.663 19.5366 119.66 19.5354L100.797 0.221452C100.791 0.209811 100.792 0.196564 100.785 0.185726C100.781 0.180507 100.775 0.1785 100.772 0.173683C100.77 0.170873 100.77 0.168063 100.768 0.165655C100.681 0.0420174 100.541 -0.0109701 100.403 0.00187537H73.5946C73.457 -0.0109701 73.317 0.0420174 73.2303 0.165655C73.2268 0.170873 73.2264 0.177296 73.2229 0.182514L54.3074 19.5494C54.3019 19.553 54.296 19.5534 54.2906 19.5575C54.1502 19.661 54.0961 19.8393 54.1388 20.0014V47.308C54.0965 47.4698 54.1502 47.648 54.2906 47.752C54.2972 47.7568 54.3059 47.7548 54.3129 47.7592L73.2182 67.1169C73.2233 67.1254 73.2241 67.1354 73.23 67.1434C73.3107 67.2586 73.4385 67.3104 73.5667 67.308H100.414C100.421 67.3084 100.429 67.3152 100.437 67.316L100.436 67.3156ZM96.1766 9.86316H88.2903L99.5233 1.5919L96.177 9.86316H96.1766ZM77.8273 9.86316L74.4838 1.59913L85.7078 9.86316H77.8273ZM86.9988 9.79251L74.8272 0.83121H99.17L86.9988 9.79251ZM77.7077 10.7098H86.9729C86.9824 10.7102 86.9898 10.7182 86.9988 10.7182C87.0082 10.7182 87.0157 10.7102 87.0247 10.7098H96.2727L109.401 24.1505V43.1529L96.2672 56.5993H87.0235C87.0063 56.5977 86.9918 56.5977 86.9745 56.5993H77.7132L64.5799 43.1529V33.7071C64.5846 33.6706 64.5846 33.6381 64.5799 33.6016V24.1505L77.7073 10.7098H77.7077ZM110.244 34.9893L118.311 46.4747L110.244 43.0538V34.9893ZM110.244 24.2561L118.31 20.8348L110.244 32.3198V24.2561ZM63.7703 24.2561V32.3435L55.68 20.8247L60.9905 23.0771L63.7703 24.2565V24.2561ZM63.7703 43.0478L55.6855 46.4763L63.7703 34.9656V43.0482V43.0478ZM77.8273 57.4455H85.7078L74.4842 65.7087L77.8273 57.4455ZM96.1794 57.4455L99.526 65.7184L88.2903 57.4455H96.1794ZM63.6926 33.6541L54.9484 46.1038V21.2049L63.6926 33.6545V33.6541ZM64.08 43.8197L77.0604 57.1095L73.4076 66.1383L55.2625 47.5589L64.08 43.8197ZM86.9988 57.5166L99.17 66.4783H74.8276L86.9992 57.5166H86.9988ZM110.305 33.6541L119.065 21.1812V46.1275L110.305 33.6541ZM109.9 23.4898L96.9251 10.2048L100.579 1.17202L118.722 19.7481L109.9 23.4898ZM73.408 1.16519L77.0624 10.1975L64.0804 23.4894L55.2586 19.7477L73.408 1.16519ZM100.578 66.1326L96.9251 57.1039L109.904 43.8157L118.722 47.5549L100.578 66.1326ZM21.4529 74.3501H25.7582C28.1529 79.8873 30.4308 85.4755 32.7957 91.0251H32.8518C33.2493 90.093 33.5877 89.1236 33.9597 88.1795C34.8932 85.7545 35.853 83.3488 36.861 80.9547C37.7529 78.8256 38.6355 76.6242 39.5043 74.3501H43.6731V75.2927C41.7959 75.2425 41.6218 76.8919 41.7202 78.4362L42.462 91.5678C42.4953 92.1676 42.5181 92.7701 42.5181 93.3706L44.5646 93.2743V94.5388H38.2552V93.5822C38.9742 93.5665 39.5541 93.3666 39.8842 92.6689C40.1982 91.9685 40.163 90.9191 40.1234 90.1597L39.3957 77.8686C39.2741 78.1801 39.1389 78.4872 39.0248 78.8015L32.6871 94.8274H31.8465C29.3581 89.126 26.7858 83.4652 24.6306 77.6189C24.5326 82.0574 24.3522 86.4947 24.2879 90.934C24.2707 91.7429 24.2809 92.5846 24.1754 93.3851L26.2925 93.2743V94.5388H20.917V93.5822C22.6169 93.5452 22.7769 92.4377 22.8557 90.9336L23.4756 75.5034L21.4521 75.5757V74.3497L21.4529 74.3501ZM55.1919 91.2174C55.1919 91.9363 55.2068 92.7629 55.0982 93.4714L60.4875 93.3851C63.4817 93.3389 64.5297 91.7433 64.5297 88.9149H65.4922L65.3279 94.5388H50.7934V93.5822C51.8919 93.5589 52.5655 93.1414 52.6855 91.9717C52.7498 91.3378 52.7321 90.6863 52.7321 90.0489V77.5896C52.7321 76.8919 52.7419 76.1967 52.8305 75.5034L50.793 75.6286V74.3497H64.3419L64.4779 79.3972H63.5578C63.5578 78.5751 63.4641 77.9019 63.2759 77.378C62.6987 75.7675 61.4806 75.3737 59.9241 75.3737L57.3279 75.4171C55.9898 75.4902 55.3095 75.8988 55.2292 77.3395C55.2056 77.7626 55.1915 78.2676 55.1915 78.8585V83.4925H60.473L60.2664 81.0121H61.5202V87.0687H60.6C60.6 84.6518 59.7383 84.5165 57.6709 84.5165C57.5298 84.5165 56.7084 84.5502 55.1919 84.6176V91.2174ZM78.3342 85.5405C77.7054 85.5786 77.0471 85.5678 76.419 85.5116V91.1066C76.419 91.8308 76.4343 92.6718 76.3249 93.3851L78.3624 93.2743V94.5388H72.02V93.5822C73.4409 93.53 73.938 92.85 73.9545 91.4426C73.9592 91.0155 73.9592 90.549 73.9592 90.044V77.5607C73.9592 76.8634 73.9686 76.1673 74.0576 75.4745L72.02 75.5997V74.3497C74.1705 74.3108 76.3202 74.2831 78.4707 74.3208C81.8891 74.3939 86.1324 75.1196 86.1324 79.4931C86.1324 82.9064 83.9372 84.6052 80.8509 85.2563C81.2171 85.5309 81.5456 85.8765 81.8412 86.2992C83.1033 88.1128 84.192 90.083 85.4188 91.9283C86.0861 92.9527 86.9341 93.5818 88.1699 93.5818V94.5384H84.6206C83.5561 93.595 82.8602 92.5417 82.0996 91.3463L80.2173 88.2654C79.6469 87.3353 79.1187 86.3028 78.3346 85.5401L78.3342 85.5405ZM76.419 84.4157C78.2425 84.5329 80.4243 84.5281 81.9302 83.3435C83.0296 82.4797 83.395 81.1739 83.395 79.8054C83.395 76.4913 81.3268 75.4171 78.3624 75.4171C76.9534 75.4171 76.4441 76.0377 76.4284 77.4455C76.4033 79.7673 76.419 82.0931 76.419 84.4153V84.4157ZM96.8529 91.3952C96.6934 91.9074 96.533 92.4369 96.3315 92.9335C96.2754 93.0728 96.2139 93.2269 96.1531 93.3851L98.3502 93.2743V94.5388H93.0825V93.5822C94.4292 93.5822 94.8903 92.5955 95.2941 91.4426C95.4443 91.0006 95.6175 90.5105 95.8104 89.977L101.608 73.8018H102.284L108.566 90.2171C108.904 91.0524 109.332 92.4879 109.293 93.3847L111.219 93.2739V94.5384H104.768V93.5818C106.52 93.5497 106.726 92.3671 106.144 90.8465C104.582 86.5722 103.044 82.2938 101.5 78.0123H101.444C99.9228 82.2079 97.9958 87.1032 96.8529 91.3944V91.3952ZM120.531 91.2174C120.531 91.9359 120.546 92.7633 120.437 93.4714L125.704 93.3851C128.622 93.3377 129.32 91.2046 129.32 88.5684H130.268L130.104 94.5388H116.132V93.5822C117.549 93.544 118.05 92.85 118.066 91.4526C118.071 91.0247 118.071 90.5587 118.071 90.0489V77.5896C118.071 76.8919 118.08 76.1967 118.169 75.5034L116.132 75.6286V74.3497H122.474V75.3063C121.06 75.3581 120.555 76.0457 120.54 77.4459C120.535 77.8686 120.53 78.3394 120.53 78.854V91.2174H120.531ZM140.524 91.1355C140.524 91.8529 140.539 92.6782 140.43 93.3851C141.445 93.4373 142.439 93.4429 143.454 93.4429C148.517 93.4429 151.501 89.2705 151.501 84.3579C151.501 78.4366 148.172 75.3886 142.468 75.3886C141.051 75.3886 140.549 76.0425 140.533 77.4463C140.529 77.869 140.524 78.3354 140.524 78.8545V91.1359V91.1355ZM142.768 74.3212C149.248 74.3212 154.265 77.2536 154.265 84.4731C154.265 88.0695 152.57 91.3467 149.458 93.1017C147.655 94.1289 145.588 94.5388 143.538 94.5388H136.126V93.5822C137.545 93.53 138.043 92.8592 138.06 91.4482C138.064 91.0203 138.064 90.5494 138.064 90.0444V77.5611C138.064 76.8638 138.074 76.1677 138.163 75.4749L136.125 75.6001V74.3501L142.768 74.3212ZM162.526 94.7696H161.066L160.902 88.6266H161.986C162.201 91.8814 164.382 93.7893 167.521 93.7893C169.672 93.7893 171.577 92.5666 171.577 90.1837C171.577 89.4821 171.427 88.8767 171.122 88.3717C170.471 87.267 169.329 86.5224 168.216 85.9732C166.915 85.3266 165.595 84.7321 164.32 84.0316C161.965 82.7101 160.53 80.76 161.066 77.9123C161.229 77.0942 161.592 76.3408 162.108 75.6965C163.924 73.3975 167.937 73.5645 170.371 74.644C170.794 74.831 171.197 75.0719 171.583 75.3597L171.47 74.1197H172.901V80.4361H171.883C171.7 77.4447 169.99 75.043 166.873 75.043C164.879 75.043 163.268 76.2862 163.268 78.4217C163.268 83.6823 174 82.6956 174 89.5254C174 95.4612 166.207 96.189 162.385 93.53L162.526 94.7696H162.526Z" fill="#096043"/>
</g>
<defs>
<clipPath id="clip0_178_180">
<rect width="174" height="98" fill="white"/>
</clipPath>
</defs>
</svg>
