<svg width="16" height="17" viewBox="0 0 16 17" fill="none" xmlns="http://www.w3.org/2000/svg">
<path fill-rule="evenodd" clip-rule="evenodd" d="M7.98091 1C11.8599 1 15.001 4.10875 15.001 7.98093H16.001C16.001 3.54967 12.4054 0 7.98091 0V1ZM7.98091 3.46753C10.4831 3.46753 12.4943 5.51283 12.4943 7.98093H13.4943C13.4943 4.96563 11.0405 2.46753 7.98091 2.46753V3.46753ZM7.98091 5.97423C9.07562 5.97423 9.98761 6.88622 9.98761 7.98093H10.9876C10.9876 6.33394 9.62791 4.97423 7.98091 4.97423V5.97423ZM3.55504 0.979278C3.13162 0.979278 2.70165 1.13945 2.31889 1.35641C1.92936 1.57722 1.54973 1.87888 1.21724 2.21403C0.884725 2.5492 0.587511 2.92982 0.370526 3.31665C0.157795 3.69589 0 4.12068 0 4.53432C0 7.46088 1.47886 10.3235 3.61401 12.4435C5.7483 14.5626 8.60031 16.0011 11.4276 16.0011C11.8511 16.0011 12.281 15.841 12.6638 15.624C13.0533 15.4032 13.433 15.1015 13.7654 14.7664C14.098 14.4312 14.3952 14.0506 14.6122 13.6638C14.8249 13.2845 14.9827 12.8597 14.9827 12.4461V12.1371L14.7063 11.9989L10.3196 9.80551L9.99723 9.64435L9.74241 9.89917L8.33256 11.309C6.67281 10.5863 5.37848 9.29444 4.65476 7.66675L6.10196 6.21956L6.35678 5.96473L6.19562 5.6424L4.00225 1.25567L3.86406 0.979278H3.55504ZM1 4.53432C1 4.36045 1.07231 4.1096 1.24269 3.80587C1.4088 3.50972 1.64769 3.20001 1.92716 2.91831C2.20666 2.63657 2.5149 2.39479 2.81202 2.22637C2.98068 2.13077 3.13442 2.06517 3.26925 2.02573L5.14002 5.76728L3.71066 7.19664L3.47924 7.42805L3.59873 7.73274C4.43331 9.86093 6.10379 11.5307 8.27145 12.3644L8.57473 12.4811L8.80449 12.2513L10.1947 10.8611L13.9347 12.7311C13.8959 12.8608 13.8323 13.0099 13.74 13.1745C13.5739 13.4707 13.335 13.7804 13.0555 14.0621C12.776 14.3438 12.4678 14.5856 12.1707 14.754C11.8668 14.9263 11.6113 15.0011 11.4276 15.0011C8.92825 15.0011 6.31643 13.7175 4.31859 11.7339C2.32159 9.75108 1 7.13033 1 4.53432Z" fill="#096043"/>
</svg>
