<svg width="15" height="20" viewBox="0 0 15 20" fill="none" xmlns="http://www.w3.org/2000/svg">
<path fill-rule="evenodd" clip-rule="evenodd" d="M14 7.61905C14 10.5983 12.3083 13.4659 10.4801 15.6713C9.57968 16.7576 8.67682 17.6464 7.99881 18.2634C7.8137 18.4319 7.64585 18.5796 7.5 18.7051C7.35415 18.5796 7.1863 18.4319 7.00119 18.2634C6.32318 17.6464 5.42032 16.7576 4.51988 15.6713C2.69166 13.4659 1 10.5983 1 7.61905C1 3.94854 3.92494 1 7.5 1C11.0751 1 14 3.94854 14 7.61905ZM15 7.61905C15 14.2857 7.5 20 7.5 20C7.5 20 0 14.2857 0 7.61905C0 3.41116 3.35786 0 7.5 0C11.6421 0 15 3.41116 15 7.61905ZM10.25 7.61905C10.25 9.18561 9.00399 10.4286 7.5 10.4286C5.99601 10.4286 4.75 9.18561 4.75 7.61905C4.75 6.05248 5.99601 4.80952 7.5 4.80952C9.00399 4.80952 10.25 6.05248 10.25 7.61905ZM11.25 7.61905C11.25 9.72299 9.57107 11.4286 7.5 11.4286C5.42893 11.4286 3.75 9.72299 3.75 7.61905C3.75 5.51511 5.42893 3.80952 7.5 3.80952C9.57107 3.80952 11.25 5.51511 11.25 7.61905Z" fill="#096043"/>
</svg>
